<svg width="389" height="388" viewBox="0 0 389 388" fill="none" xmlns="http://www.w3.org/2000/svg">
<rect x="33.0582" y="107.318" width="325" height="60" rx="10" transform="rotate(-15 33.0582 107.318)" fill="#ED4956"/>
<path d="M75.3001 124.522C76.0825 124.312 76.4778 123.585 76.2837 122.861C76.0896 122.136 75.3837 121.704 74.6013 121.914L73.3842 122.24L72.9648 118.936C72.9316 118.696 72.9161 118.638 72.8928 118.551C72.7142 117.885 72.0084 117.453 71.3129 117.639C70.6464 117.818 70.2413 118.392 70.3096 118.995L70.8052 122.931L65.9369 124.235L65.5175 120.931C65.5133 120.684 65.4978 120.626 65.4745 120.539C65.2959 119.873 64.5611 119.448 63.8656 119.635C63.2281 119.805 62.794 120.388 62.8913 120.983L63.3869 124.919L61.5613 125.408C60.7789 125.617 60.3836 126.344 60.5777 127.069C60.7718 127.793 61.4777 128.225 62.2601 128.016L63.738 127.62L64.3625 132.732L62.7977 133.152C62.0443 133.353 61.649 134.081 61.8431 134.805C62.0372 135.529 62.7431 135.961 63.4965 135.76L64.7136 135.433L65.1097 138.651C65.1661 138.977 65.1894 139.064 65.205 139.122C65.3913 139.817 66.0894 140.221 66.7849 140.034C67.4514 139.856 67.8565 139.281 67.7881 138.678L67.2926 134.742L72.1608 133.438L72.5725 136.713C72.5844 136.989 72.6077 137.076 72.6233 137.134C72.8096 137.83 73.5367 138.225 74.2322 138.039C74.8697 137.868 75.3038 137.286 75.2354 136.683L74.7399 132.747L76.5944 132.25C77.3479 132.048 77.7432 131.321 77.549 130.597C77.3549 129.872 76.678 129.432 75.9826 129.619L74.3888 130.046L73.7353 124.941L75.3001 124.522ZM66.9648 132.128L66.2647 126.85L71.133 125.545L71.8331 130.824L66.9648 132.128ZM84.5557 135.272C85.4251 135.04 85.913 134.194 85.6723 133.296L84.0262 127.153L87.9092 126.112C91.7632 125.08 93.7558 121.968 92.824 118.491C91.8845 114.984 88.6476 113.336 84.7645 114.376L79.4037 115.813C78.4764 116.061 77.9885 116.906 78.2369 117.834L82.6006 134.119C82.8413 135.018 83.6864 135.505 84.5557 135.272ZM83.2963 124.429L81.6114 118.141L85.4654 117.108C87.5518 116.549 89.153 117.424 89.6732 119.366C90.1934 121.307 89.2367 122.837 87.1503 123.396L83.2963 124.429ZM112.555 125.254L101.242 110.738C100.766 110.12 100.18 109.904 99.4847 110.091C98.8182 110.269 98.4188 110.749 98.3154 111.522L95.7767 129.75C95.696 130.144 95.7157 130.45 95.7778 130.682C95.9952 131.493 96.8403 131.981 97.6806 131.756C98.3761 131.569 98.7678 131.061 98.8422 130.295L99.2502 127.298L108.262 124.883L110.173 127.259C110.649 127.877 111.213 128.13 111.909 127.943C112.749 127.718 113.237 126.873 113.02 126.062C112.957 125.83 112.793 125.563 112.555 125.254ZM100.688 114.582L106.462 122.57L99.6236 124.402L100.688 114.582ZM125.253 124.368C128.614 123.467 131.454 120.967 132.538 117.943C132.759 117.263 132.749 116.644 132.555 115.92L131.809 113.138C131.561 112.211 130.716 111.723 129.818 111.964L123.761 113.586C122.892 113.819 122.417 114.599 122.619 115.352C122.821 116.106 123.622 116.543 124.491 116.31L129.041 115.091L129.631 117.294C128.88 119.358 127.036 120.939 124.66 121.576C120.545 122.679 116.818 120.478 115.7 116.305C114.606 112.219 116.682 108.495 120.681 107.424C122.768 106.865 124.534 107.199 126.513 108.439C127.153 108.857 127.547 108.938 128.04 108.806C128.851 108.589 129.281 107.759 129.087 107.035C128.963 106.571 128.615 106.199 127.982 105.809C125.876 104.323 122.768 103.852 119.957 104.605C114.277 106.127 111.022 111.596 112.521 117.188C114.019 122.781 119.573 125.89 125.253 124.368ZM139.34 120.251L149.511 117.526C150.323 117.309 150.768 116.537 150.558 115.755C150.349 114.972 149.585 114.556 148.774 114.773L140.196 117.071L138.573 111.015L144.514 109.423C145.296 109.214 145.72 108.479 145.519 107.725C145.317 106.972 144.582 106.548 143.799 106.757L137.859 108.349L136.547 103.452L144.776 101.247C145.588 101.029 146.041 100.287 145.831 99.5044C145.622 98.722 144.85 98.2765 144.039 98.4939L134.215 101.126C133.375 101.351 132.908 102.16 133.133 103L137.466 119.17C137.691 120.01 138.5 120.477 139.34 120.251ZM164.843 115.592L154.788 118.286C154.034 118.488 153.624 119.157 153.818 119.882C154.004 120.577 154.694 120.951 155.448 120.749L165.503 118.055C166.228 117.861 166.667 117.184 166.481 116.489C166.287 115.764 165.568 115.398 164.843 115.592ZM177.98 89.0577C177.111 89.2906 176.623 90.1357 176.864 91.034L180.138 103.139L167.067 93.069C166.395 92.5345 165.955 92.28 165.259 92.4663C164.419 92.6915 163.931 93.5366 164.156 94.3769L168.628 111.068C168.869 111.966 169.714 112.454 170.583 112.221C171.453 111.988 171.941 111.143 171.7 110.245L168.447 98.1034L181.623 108.332C182.168 108.745 182.667 108.984 183.305 108.813C184.174 108.58 184.633 107.743 184.408 106.902L179.935 90.2109C179.695 89.3126 178.85 88.8247 177.98 89.0577ZM193.193 84.9816C187.571 86.4879 184.331 92.0148 185.814 97.5495C187.297 103.084 192.866 106.251 198.488 104.744C204.11 103.238 207.379 97.7034 205.896 92.1687C204.42 86.6629 198.814 83.4752 193.193 84.9816ZM193.975 87.7847C197.916 86.7287 201.65 88.9581 202.729 92.9861C203.824 97.0719 201.705 100.87 197.764 101.926C193.794 102.99 190.096 100.781 188.994 96.6665C187.907 92.6096 190.005 88.8484 193.975 87.7847ZM217.693 99.5985C218.562 99.3656 219.05 98.5205 218.809 97.6222L214.756 82.4958L219.943 81.1059C220.755 80.8885 221.208 80.1459 220.998 79.3635C220.789 78.5811 220.017 78.1356 219.206 78.353L205.789 81.948C204.977 82.1654 204.532 82.937 204.742 83.7194C204.951 84.5018 205.715 84.9183 206.526 84.7009L211.685 83.3188L215.738 98.4452C215.978 99.3435 216.823 99.8314 217.693 99.5985ZM236.212 96.4687L226.157 99.163C225.403 99.3649 224.993 100.034 225.187 100.758C225.373 101.454 226.063 101.828 226.817 101.626L236.872 98.9318C237.597 98.7377 238.036 98.0608 237.85 97.3653C237.656 96.6409 236.937 96.2746 236.212 96.4687ZM241.953 93.0981C242.851 92.8574 243.31 92.0201 243.069 91.1218L241.291 84.4859L247.637 82.7854C248.449 82.568 248.894 81.7964 248.684 81.014C248.475 80.2316 247.703 79.7862 246.892 80.0036L240.546 81.704L239.016 75.9954L246.956 73.8679C247.767 73.6505 248.221 72.9079 248.011 72.1255C247.801 71.3431 247.03 70.8976 246.218 71.115L236.801 73.6385C235.873 73.887 235.385 74.732 235.634 75.6593L239.997 91.9448C240.238 92.8431 241.054 93.3388 241.953 93.0981ZM259.185 67.299C253.563 68.8053 250.323 74.3322 251.806 79.8669C253.289 85.4017 258.859 88.5681 264.48 87.0618C270.102 85.5555 273.371 80.0208 271.888 74.4861C270.413 68.9803 264.807 65.7927 259.185 67.299ZM259.967 70.1021C263.908 69.0461 267.642 71.2755 268.722 75.3035C269.816 79.3893 267.697 83.1872 263.756 84.2432C259.786 85.307 256.089 83.0987 254.986 78.9839C253.899 74.927 255.997 71.1658 259.967 70.1021ZM285.903 81.3217C290.597 80.0638 292.873 76.0377 291.568 71.1694L288.851 61.0272C288.61 60.1289 287.765 59.641 286.896 59.8739C285.997 60.1146 285.538 60.9519 285.779 61.8502L288.551 72.1953C289.382 75.2959 288.076 77.7266 285.15 78.5108C282.194 79.3028 279.819 77.8582 278.988 74.7576L276.216 64.4126C275.976 63.5142 275.16 63.0186 274.261 63.2593C273.392 63.4922 272.904 64.3373 273.145 65.2356L275.862 75.3778C277.167 80.2461 281.121 82.6028 285.903 81.3217ZM307.277 54.4128C306.407 54.6458 305.919 55.4908 306.16 56.3891L309.435 68.4941L296.363 58.4242C295.692 57.8897 295.251 57.6351 294.555 57.8215C293.715 58.0466 293.227 58.8917 293.452 59.7321L297.925 76.4233C298.165 77.3216 299.01 77.8095 299.88 77.5765C300.749 77.3436 301.237 76.4985 300.996 75.6002L297.743 63.4585L310.919 73.6868C311.465 74.0997 311.964 74.3387 312.601 74.1679C313.47 73.935 313.929 73.0977 313.704 72.2573L309.232 55.5661C308.991 54.6678 308.146 54.1799 307.277 54.4128ZM319.676 51.4319L315.301 52.6044C314.374 52.8529 313.886 53.6979 314.134 54.6252L318.405 70.563C318.653 71.4903 319.498 71.9782 320.425 71.7297L324.801 70.5573C330.973 68.9034 334.193 63.879 332.663 58.1704C331.126 52.4328 325.936 49.7548 319.676 51.4319ZM320.393 54.2216C324.855 53.0258 328.365 54.8807 329.475 59.0245C330.578 63.1393 328.41 66.6397 324.034 67.8121L321.166 68.5808L317.524 54.9903L320.393 54.2216Z" fill="white"/>
<path d="M212.021 143.227C211.511 144.417 210.022 144.816 208.986 144.04L197.502 135.453C196.164 134.453 196.569 132.352 198.182 131.92L215.318 127.328C216.931 126.896 218.332 128.514 217.673 130.048L212.021 143.227Z" fill="#ED4956"/>
<path fill-rule="evenodd" clip-rule="evenodd" d="M24.337 86.3616C24.1226 85.5614 24.5975 84.7389 25.3977 84.5245C26.1979 84.3101 27.0204 84.785 27.2348 85.5852L30.3406 97.1763C30.555 97.9765 30.0802 98.799 29.28 99.0134C28.4798 99.2278 27.6573 98.7529 27.4428 97.9527L24.337 86.3616ZM10.3886 99.2282C9.67112 98.8139 9.4253 97.8965 9.83952 97.1791C10.2537 96.4617 11.1711 96.2159 11.8885 96.6301L22.2809 102.63C22.9983 103.044 23.2441 103.962 22.8299 104.679C22.4157 105.397 21.4983 105.642 20.7808 105.228L10.3886 99.2282ZM7.62528 116.721C7.83969 117.522 8.66219 117.996 9.46239 117.782L21.0535 114.676C21.8537 114.462 22.3286 113.639 22.1142 112.839C21.8997 112.039 21.0772 111.564 20.277 111.778L8.68594 114.884C7.88573 115.099 7.41086 115.921 7.62528 116.721Z" fill="#121212"/>
<path d="M138.6 307.2H129.8V277.4C129.8 271.4 125.2 266.8 119.2 266.8C113.2 266.8 108.6 271.4 108.6 277.4V307.2H69L102.6 230.6C103.2 229 103.6 227.8 103.6 226.4C103.6 220.6 98.8 215.8 93 215.8C88.4 215.8 84.6 218.8 82.8 223L43.8 311.8C43 313.6 42.6 315 42.6 316.4C42.6 322.2 47.4 327 53.2 327H108.6V341.6C108.6 347.6 113.2 352.2 119.2 352.2C125.2 352.2 129.8 347.6 129.8 341.6V327H138.6C145.2 327 149 322 149 317C149 312 145.2 307.2 138.6 307.2ZM213.905 215.8C182.305 215.8 163.505 240.6 163.505 282.8C163.505 326 182.705 352.2 213.905 352.2C244.905 352.2 264.105 326 264.105 282.8C264.105 240.6 245.305 215.8 213.905 215.8ZM213.905 235.2C232.705 235.2 242.105 251.2 242.105 283C242.105 315.6 232.505 332.8 213.905 332.8C195.305 332.8 185.505 315.4 185.505 283C185.505 251.2 194.905 235.2 213.905 235.2ZM375.905 307.2H367.105V277.4C367.105 271.4 362.505 266.8 356.505 266.8C350.505 266.8 345.905 271.4 345.905 277.4V307.2H306.305L339.905 230.6C340.505 229 340.905 227.8 340.905 226.4C340.905 220.6 336.105 215.8 330.305 215.8C325.705 215.8 321.905 218.8 320.105 223L281.105 311.8C280.305 313.6 279.905 315 279.905 316.4C279.905 322.2 284.705 327 290.505 327H345.905V341.6C345.905 347.6 350.505 352.2 356.505 352.2C362.505 352.2 367.105 347.6 367.105 341.6V327H375.905C382.505 327 386.305 322 386.305 317C386.305 312 382.505 307.2 375.905 307.2Z" fill="black"/>
</svg>
